<?xml version="1.0" encoding="utf-8"?>
<!-- Generator: Adobe Illustrator 18.0.0, SVG Export Plug-In . SVG Version: 6.00 Build 0)  -->
<!DOCTYPE svg PUBLIC "-//W3C//DTD SVG 1.1//EN" "http://www.w3.org/Graphics/SVG/1.1/DTD/svg11.dtd">
<svg version="1.1" id="Layer_1" xmlns="http://www.w3.org/2000/svg" xmlns:xlink="http://www.w3.org/1999/xlink" x="0px" y="0px"
	 width="2267.7px" height="2834.6px" viewBox="0 0 2267.7 2834.6" enable-background="new 0 0 2267.7 2834.6" xml:space="preserve">
<g id="beSqg4.tif">
	<g>
		<path d="M1112.2,1387.9c-266.8-4.1-487.7-86.2-676-253c-8.6-7.6-21-16.1-11.2-29.2c9-12,22.1-5.7,32.2,0.2
			c73.4,42.8,150.6,76.9,231.1,103.7c108.7,36.1,219.8,58.2,334.3,66.9c202.5,15.5,395.2-22.9,582.4-97.2
			c15.8-6.3,33.7-14.6,44.3,5.2c10.5,19.4-5.6,30.6-19.6,40.4c-93.9,65.9-198.1,107.2-309.1,134.6
			C1246.7,1377.7,1171.6,1383.1,1112.2,1387.9z"/>
		<path d="M1425.8,820.3c15.7,0,31.6,1.1,47.2-0.2c29-2.4,38.3,12.8,38.4,38.9c0.3,73.1-53.2,147.8-119.4,166
			c-78.4,21.5-158.6-10.4-198.2-79c-37.4-64.8-32.3-155.8,11.5-205.5c59.4-67.5,134.3-86.2,212-51.8c17.9,7.9,42.9,14.2,34.6,42.5
			c-7.9,26.8-42.9,41.6-68.1,31.4c-46.1-18.6-95.4-3.5-121.7,37.3c-26.5,41.2-20.3,91.5,15.5,126.4c29.7,28.9,91.4,34,125.8,9.6
			c7.8-5.5,14.5-13.5,19.5-21.6c7.5-12.3,3.4-20.9-11.5-22.3c-9.8-0.9-19.6-0.5-29.5-0.7c-34.7-0.9-43.7-11.4-40.8-45.1
			c1.5-16.6,8.9-25.4,25.7-25.6c9.8-0.1,19.7-0.2,29.5-0.3C1406.1,820.3,1415.9,820.3,1425.8,820.3z"/>
		<path d="M732.4,685.1c20.8-1.6,41.4-0.8,60.9,7.5c35.6,15.2,57.5,40.5,57.7,81c0.3,38.4,0.6,76.7,0.3,115.1
			c-0.2,21.1,2.4,41.1,14.6,59.1c13.4,19.7,5.2,34.6-10.5,48.7c-17.3,15.5-37.3,28.7-57.6,11.9c-18.9-15.7-30.6-11.5-48.3,0
			c-14.4,9.3-32.6,14.3-49.7,17.3c-48.4,8.4-90.5-16.2-105.9-59.6c-16-45.1,3.6-102.1,43.9-127.3c25.7-16.1,54.2-22.1,84-25.1
			c15.3-1.6,36.3,1.7,38.7-22.4c1.5-15.2-6.5-27.4-20.7-32.4c-19.2-6.8-39.5-5-49.1,14.5c-12.4,25.2-31.6,26-54.2,22.8
			c-35.4-5-45.3-25.1-25.5-55.2c20.9-31.8,49.6-53.1,89.1-55.7C710.7,684.5,721.6,685.1,732.4,685.1z M685.2,920
			c-1.3,17.3,4.8,32.6,27.1,35.1c24.3,2.7,47.7-26.4,48.9-59.2c0.6-15.2-1.6-27.2-21.2-27.6C710.2,867.7,686.4,888.5,685.2,920z"/>
		<path d="M1701.8,690c16.8-0.2,34.3-0.6,49.3,7.1c23.3,12.1,36.2,2.3,47.9-17c6.6-10.8,14.7-21.2,24-29.6
			c10.8-9.8,23.7-9.3,34.6,1.1c10.4,9.9,10.1,21.9,0.8,31.6c-32.1,33.5-33.8,62.8-8.3,106.2c36.9,63.1,20.7,129.9-27.9,182.7
			c-47.6,51.8-109,68.7-177.8,45.3c-16.5-5.6-28.1-3.8-37.4,11.8c-5.5,9.2-12.5,17.7-20.1,25.4c-9.2,9.4-20.8,11.7-32,3.5
			c-11.1-8.1-15.1-21.8-6.1-31.1c31.9-33.1,18.4-60.2-0.7-95.4C1488.2,821.3,1574.1,689,1701.8,690z M1697.6,739.1
			c-86.9,0.5-146.4,98.8-104.3,172.6c12.8,22.5,20,23.1,35.2,2.5c31.4-42.6,62.8-85.2,93.4-128.4c7.4-10.4,22.8-20.7,13.6-35.5
			C1727.6,737.4,1711.3,739.4,1697.6,739.1z M1698.2,974.2c86.3,0.4,144.3-88.6,107.6-164.8c-10.9-22.7-20.1-23.9-34.9-4.2
			c-12.9,17.2-25.6,34.7-38.3,52.1c-21.4,29.3-42.6,58.7-64,87.9c-14.5,19.8-6.8,27.9,14.9,28.9
			C1688.4,974.4,1693.3,974.2,1698.2,974.2z"/>
		<path d="M997.4,872.6c0,41.4-0.2,81.1,0.1,120.9c0.2,25.5-13.2,34.7-37.3,33.9c-17.9-0.7-27.7-8.2-27.7-26.7
			c0-98.3,0-196.5,0-294.8c0-16.5,8.1-26,24.9-26.5c19.2-0.6,40.8-6,49.8,19.4c8.8,25,16.9,50.2,25.8,75.2
			c5.1,14.4,11,28.5,23.3,41.5c0-37.8,1-75.6-0.4-113.3c-0.9-24.3,8-35.5,32.5-39c26.3-3.8,33.5,7.9,33.4,31
			c-0.3,80.6-0.1,161.2-0.1,241.8c0,18.7,0,37.3-0.1,56c0,17-3.6,31.8-24,34.6c-19.7,2.6-37.8,1-45.9-21.5
			c-14-38.8-28-77.6-42.2-116.3C1007.6,883.5,1007.7,876.8,997.4,872.6z"/>
		<path d="M466.3,953.7c0,16.7-1.1,33.5,0.3,50.1c2.2,26.5-8,37.5-35.4,36.4c-36-1.4-40.8-4.1-41.2-37.4
			c-0.4-37.4-0.3-74.8-0.1-112.1c0.1-15.3-3.2-26.9-21.4-29.2c-24-3.1-20.6-22.3-21-38.8c-0.4-15.5,0.3-30.6,21.2-32
			c16.6-1.1,21-11.2,21.3-26c0.2-11.7,1.3-23.6,3.1-35.2c11.3-73.7,71.1-85.2,126.5-73.6c21.4,4.5,16.8,23.7,16.2,39
			c-0.7,18.3-11.7,24.6-29.2,25.8c-37.1,2.6-40.5,8-40.6,41.8c-0.1,22.8,10.9,28.6,31.1,28.3c17.1-0.3,37.6-3.9,38.6,23.6
			c1.2,33.9-8.2,46.4-39.9,47.2c-21.4,0.5-30.5,8.6-29.5,30C467.1,912.4,466.4,933,466.3,953.7C466.4,953.7,466.3,953.7,466.3,953.7
			z"/>
		<path d="M1773,1128.4c-6.8,68.1-28.8,130.1-75,182.1c-7.6,8.6-17.2,20.1-29.9,12.7c-13.7-8-5.6-21.1-1.4-31.7
			c14.2-35.7,28.7-71.3,33.5-109.8c4.2-34.4-3.3-42.7-37.5-49.4c-39.7-7.9-78.4,2.3-117.5,4.2c-9.9,0.5-21.3,3.7-26.1-7.4
			c-5.3-12.1,6.2-17.8,14-22.6c66.8-41.3,138.9-46.2,213.4-28.1C1772,1084.5,1773.7,1106.3,1773,1128.4z"/>
	</g>
</g>
</svg>
